<svg width="64" height="64" viewBox="0 0 64 64" fill="none" xmlns="http://www.w3.org/2000/svg">
<path d="M0 48.1723C0 50.8195 2.14588 52.9655 4.79313 52.9655H59.2069C61.854 52.9655 64 50.8196 64 48.1723V44.1378H0V48.1723Z" fill="#C8414B"/>
<path d="M59.2069 11.0345H4.79313C2.14588 11.0345 0 13.1804 0 15.8276V19.8621H64V15.8276C64 13.1804 61.8541 11.0345 59.2069 11.0345Z" fill="#C8414B"/>
<path d="M64 19.8625H0V44.1387H64V19.8625Z" fill="#FFD250"/>
<path d="M27.0346 32L27.9702 27.7899C28.0565 27.4021 27.7613 27.0344 27.3641 27.0344H26.7051C26.308 27.0344 26.013 27.4022 26.099 27.7899L27.0346 32Z" fill="#C8414B"/>
<path d="M28.138 29.7925H25.9312V39.1713H28.138V29.7925Z" fill="#F5F5F5"/>
<path d="M28.689 28.69H25.3787V29.7935H28.689V28.69Z" fill="#FAB446"/>
<path d="M28.6901 32H23.1726V33.1035H28.6901V32Z" fill="#C8414B"/>
<path d="M28.6898 36.4137L25.3794 35.3103V34.2068L28.6898 35.3103V36.4137Z" fill="#C8414B"/>
<path d="M10.4828 32L11.4185 27.7899C11.5047 27.4021 11.2096 27.0344 10.8123 27.0344H10.1533C9.75621 27.0344 9.46121 27.4022 9.54721 27.7899L10.4828 32Z" fill="#C8414B"/>
<path d="M14.345 28.6896C13.7356 28.6896 13.2415 29.1838 13.2415 29.7931V36.9655C13.2415 38.3061 14.4927 40.8276 18.7587 40.8276C23.0247 40.8276 24.276 38.3063 24.276 36.9655V29.7931C24.276 29.1838 23.7818 28.6896 23.1725 28.6896H14.345Z" fill="#F5F5F5"/>
<path d="M18.7587 34.2069H13.2415V29.7931C13.2415 29.1838 13.7356 28.6896 14.345 28.6896H18.7587V34.2069Z" fill="#C8414B"/>
<path d="M18.7588 34.2069H24.276V36.9655C24.276 38.4891 23.041 39.7241 21.5174 39.7241C19.9938 39.7241 18.7588 38.4891 18.7588 36.9655V34.2069Z" fill="#C8414B"/>
<path d="M13.2415 34.2069H18.7587V36.9655C18.7587 38.4891 17.5237 39.7241 16.0001 39.7241C14.4765 39.7241 13.2415 38.4891 13.2415 36.9655V34.2069Z" fill="#FAB446"/>
<path d="M17.655 39.16V34.2069H16.5515V39.6685C16.962 39.5853 17.3329 39.4035 17.655 39.16Z" fill="#C8414B"/>
<path d="M15.4482 39.6685V34.2069H14.3447V39.16C14.667 39.4035 15.0379 39.5853 15.4482 39.6685Z" fill="#C8414B"/>
<path d="M17.6553 32H14.345V33.1035H17.6553V32Z" fill="#FFB441"/>
<path d="M17.6553 29.7925H14.345V30.896H17.6553V29.7925Z" fill="#FAB446"/>
<path d="M17.1031 30.4488H14.8962V32.4478H17.1031V30.4488Z" fill="#FAB446"/>
<path d="M11.5855 29.7925H9.37866V39.1713H11.5855V29.7925Z" fill="#F5F5F5"/>
<path d="M12.1378 38.6212H8.82739V39.7247H12.1378V38.6212Z" fill="#FAB446"/>
<path d="M12.1378 28.69H8.82739V29.7935H12.1378V28.69Z" fill="#FAB446"/>
<path d="M12.6901 39.7238H8.27637V40.8273H12.6901V39.7238Z" fill="#5064AA"/>
<path d="M29.2415 38.6212H25.9312V39.7247H29.2415V38.6212Z" fill="#FAB446"/>
<path d="M29.2411 39.7238H24.8274V40.8273H29.2411V39.7238Z" fill="#5064AA"/>
<path d="M22.0695 27.5862H15.4487V28.6897H22.0695V27.5862Z" fill="#FAB446"/>
<path d="M19.311 24.2762H18.2075V27.5866H19.311V24.2762Z" fill="#FFB441"/>
<path d="M17.6551 25.931C16.7424 25.931 16 25.1885 16 24.2759C16 23.3631 16.7425 22.6208 17.6551 22.6208C18.5679 22.6208 19.3102 23.3633 19.3102 24.2759C19.3104 25.1885 18.5679 25.931 17.6551 25.931ZM17.6551 23.7241C17.3507 23.7241 17.1034 23.9714 17.1034 24.2759C17.1034 24.5803 17.3506 24.8276 17.6551 24.8276C17.9596 24.8276 18.2069 24.5804 18.2069 24.2759C18.2069 23.9715 17.9596 23.7241 17.6551 23.7241Z" fill="#F5F5F5"/>
<path d="M19.8622 25.931C18.9494 25.931 18.207 25.1885 18.207 24.2759C18.207 23.3631 18.9495 22.6208 19.8622 22.6208C20.7749 22.6208 21.5173 23.3633 21.5173 24.2759C21.5173 25.1885 20.7748 25.931 19.8622 25.931ZM19.8622 23.7241C19.5578 23.7241 19.3104 23.9714 19.3104 24.2759C19.3104 24.5803 19.5577 24.8276 19.8622 24.8276C20.1665 24.8276 20.4139 24.5804 20.4139 24.2759C20.4138 23.9715 20.1665 23.7241 19.8622 23.7241Z" fill="#F5F5F5"/>
<path d="M22.0692 27.0345C21.1564 27.0345 20.4141 26.292 20.4141 25.3794C20.4141 24.4666 21.1566 23.7242 22.0692 23.7242C22.9819 23.7242 23.7243 24.4667 23.7243 25.3794C23.7243 26.292 22.9818 27.0345 22.0692 27.0345ZM22.0692 24.8276C21.7648 24.8276 21.5174 25.0749 21.5174 25.3794C21.5174 25.6837 21.7647 25.9311 22.0692 25.9311C22.3736 25.9311 22.6209 25.6839 22.6209 25.3794C22.6209 25.0749 22.3736 24.8276 22.0692 24.8276Z" fill="#F5F5F5"/>
<path d="M15.4483 27.0345C14.5356 27.0345 13.7932 26.292 13.7932 25.3794C13.7932 24.4666 14.5357 23.7242 15.4483 23.7242C16.3611 23.7242 17.1035 24.4667 17.1035 25.3794C17.1036 26.292 16.3611 27.0345 15.4483 27.0345ZM15.4483 24.8276C15.144 24.8276 14.8966 25.0749 14.8966 25.3794C14.8966 25.6837 15.1438 25.9311 15.4483 25.9311C15.7528 25.9311 16.0001 25.6837 16.0001 25.3792C16.0001 25.0749 15.7528 24.8276 15.4483 24.8276Z" fill="#F5F5F5"/>
<path d="M22.0691 36.4137V36.9655C22.0691 37.2697 21.8216 37.5172 21.5173 37.5172C21.2131 37.5172 20.9656 37.2697 20.9656 36.9655V36.4137H22.0691ZM23.1724 35.3104H19.8621V36.9655C19.8621 37.8782 20.6046 38.6206 21.5172 38.6206C22.4299 38.6206 23.1723 37.8781 23.1723 36.9655V35.3104H23.1724Z" fill="#FAB446"/>
<path d="M21.5173 33.1035C20.9079 33.1035 20.4138 32.6094 20.4138 32V30.8965C20.4138 30.2871 20.9079 29.793 21.5173 29.793C22.1267 29.793 22.6208 30.2871 22.6208 30.8965V32C22.6208 32.6094 22.1267 33.1035 21.5173 33.1035Z" fill="#FFA0D2"/>
<path d="M18.7586 35.8614C19.6727 35.8614 20.4138 35.1203 20.4138 34.2062C20.4138 33.2921 19.6727 32.5511 18.7586 32.5511C17.8445 32.5511 17.1035 33.2921 17.1035 34.2062C17.1035 35.1203 17.8445 35.8614 18.7586 35.8614Z" fill="#5064AA"/>
<path d="M19.311 22.0688H18.2075V25.3791H19.311V22.0688Z" fill="#FAB446"/>
<path d="M15.4482 27.5863L14.3447 26.4828L14.9911 25.8364C15.9902 24.8373 17.3455 24.2759 18.7586 24.2759C20.1717 24.2759 21.5268 24.8373 22.5261 25.8364L23.1725 26.4828L22.069 27.5863H15.4482Z" fill="#C8414B"/>
<path d="M18.7588 27.0343C19.0635 27.0343 19.3105 26.7872 19.3105 26.4825C19.3105 26.1778 19.0635 25.9308 18.7588 25.9308C18.4541 25.9308 18.207 26.1778 18.207 26.4825C18.207 26.7872 18.4541 27.0343 18.7588 27.0343Z" fill="#FFD250"/>
<path d="M16.5513 27.0343C16.856 27.0343 17.103 26.7872 17.103 26.4825C17.103 26.1778 16.856 25.9308 16.5513 25.9308C16.2465 25.9308 15.9995 26.1778 15.9995 26.4825C15.9995 26.7872 16.2465 27.0343 16.5513 27.0343Z" fill="#FFD250"/>
<path d="M20.9651 27.0343C21.2698 27.0343 21.5168 26.7872 21.5168 26.4825C21.5168 26.1778 21.2698 25.9308 20.9651 25.9308C20.6604 25.9308 20.4133 26.1778 20.4133 26.4825C20.4133 26.7872 20.6604 27.0343 20.9651 27.0343Z" fill="#FFD250"/>
<path d="M14.3449 32H8.82739V33.1035H14.3449V32Z" fill="#C8414B"/>
<path d="M8.82837 36.4138L12.1386 35.3104V34.2069L8.82837 35.3104V36.4138Z" fill="#C8414B"/>
</svg>
